<svg width="18" height="18" viewBox="0 0 18 18" fill="none" xmlns="http://www.w3.org/2000/svg">
<path d="M15.5545 5.86314C15.4548 5.94054 13.6936 6.93292 13.6936 9.13956C13.6936 11.6919 15.9346 12.5948 16.0017 12.6172C15.9914 12.6722 15.6457 13.8538 14.8201 15.0577C14.084 16.1172 13.3152 17.1749 12.1457 17.1749C10.9762 17.1749 10.6752 16.4956 9.32506 16.4956C8.00934 16.4956 7.54152 17.1973 6.47174 17.1973C5.40197 17.1973 4.65553 16.217 3.7973 15.013C2.80319 13.5993 2 11.4029 2 9.31843C2 5.97494 4.17396 4.20172 6.31351 4.20172C7.45037 4.20172 8.39803 4.94816 9.11179 4.94816C9.79115 4.94816 10.8506 4.157 12.144 4.157C12.6342 4.157 14.3953 4.20172 15.5545 5.86314ZM11.53 2.74152C12.0649 2.10688 12.4432 1.22629 12.4432 0.3457C12.4432 0.223587 12.4329 0.0997543 12.4106 0C11.5403 0.0326781 10.5049 0.579607 9.88059 1.30369C9.39042 1.86093 8.93292 2.74152 8.93292 3.63415C8.93292 3.7683 8.95528 3.90246 8.9656 3.94545C9.02064 3.95577 9.11007 3.96781 9.19951 3.96781C9.98034 3.96781 10.9624 3.44496 11.53 2.74152Z" fill="black"/>
</svg>
