<svg width="30" height="23" viewBox="0 0 30 23" fill="none" xmlns="http://www.w3.org/2000/svg">
<g clip-path="url(#clip0_152_1049)">
<path d="M24.7418 2.39496C22.8347 1.52182 20.8214 0.902394 18.7533 0.55249C18.4703 1.0584 18.2142 1.57891 17.9861 2.11185C15.7832 1.77989 13.543 1.77989 11.34 2.11185C11.1118 1.57897 10.8558 1.05846 10.5729 0.55249C8.50346 0.905349 6.4888 1.52625 4.57975 2.39952C0.789796 8.00683 -0.237601 13.4749 0.276098 18.8653C2.49559 20.5051 4.97984 21.7523 7.62085 22.5525C8.21552 21.7527 8.74174 20.9042 9.19391 20.016C8.33508 19.6952 7.50616 19.2995 6.71674 18.8333C6.9245 18.6826 7.1277 18.5274 7.32404 18.3767C9.62107 19.4569 12.1282 20.017 14.6665 20.017C17.2049 20.017 19.7119 19.4569 22.009 18.3767C22.2076 18.5388 22.4108 18.694 22.6163 18.8333C21.8253 19.3002 20.9949 19.6967 20.1345 20.0182C20.5862 20.906 21.1124 21.7538 21.7076 22.5525C24.3509 21.7555 26.837 20.5089 29.0569 18.8676C29.6597 12.6164 28.0272 7.19861 24.7418 2.39496ZM9.84459 15.5502C8.41308 15.5502 7.23044 14.2511 7.23044 12.6529C7.23044 11.0548 8.37199 9.74427 9.84002 9.74427C11.3081 9.74427 12.4816 11.0548 12.4565 12.6529C12.4313 14.2511 11.3035 15.5502 9.84459 15.5502ZM19.4884 15.5502C18.0546 15.5502 16.8766 14.2511 16.8766 12.6529C16.8766 11.0548 18.0181 9.74427 19.4884 9.74427C20.9587 9.74427 22.1231 11.0548 22.098 12.6529C22.0729 14.2511 20.9473 15.5502 19.4884 15.5502Z" fill="#8E8E8E"/>
</g>
<defs>
<clipPath id="clip0_152_1049">
<rect width="29.0274" height="22" fill="white" transform="translate(0.152832 0.55249)"/>
</clipPath>
</defs>
</svg>
