<svg width="32" height="32" viewBox="0 0 32 32" fill="none" xmlns="http://www.w3.org/2000/svg">
<path d="M6.12645 25.8736L6.83356 25.1665L6.12646 25.8736C6.49524 26.2424 6.94719 26.2357 7.15389 26.2155C7.33351 26.1979 7.53643 26.1469 7.68292 26.1101C7.69492 26.1071 7.70654 26.1042 7.71774 26.1014L11.7052 25.1045C11.7231 25.1 11.7416 25.0955 11.7605 25.0908C11.9688 25.0394 12.2325 24.9743 12.4742 24.8374C12.716 24.7005 12.9074 24.5079 13.0587 24.3558C13.0724 24.3419 13.0858 24.3285 13.0989 24.3154L23.293 14.1213C23.3058 14.1085 23.3186 14.0957 23.3315 14.0829C23.6314 13.7831 23.9228 13.4917 24.1309 13.219C24.3654 12.9116 24.5859 12.5137 24.5859 12C24.5859 11.4863 24.3654 11.0884 24.1309 10.781C23.9229 10.5083 23.6314 10.217 23.3315 9.91716C23.3189 9.90464 23.3064 9.89211 23.2938 9.87955C23.2936 9.87926 23.2933 9.87897 23.293 9.87868L22.1214 8.70711C22.1086 8.69427 22.0957 8.68144 22.0829 8.66863C21.7831 8.36871 21.4918 8.07723 21.2191 7.86919C20.9117 7.63466 20.5137 7.41421 20.0001 7.41421C19.4864 7.41421 19.0885 7.63466 18.7811 7.86919C18.5084 8.07723 18.217 8.36871 17.9172 8.66863C17.9044 8.68145 17.8916 8.69427 17.8788 8.70711L7.68469 18.9012C7.67161 18.9143 7.65813 18.9277 7.64432 18.9414C7.49215 19.0926 7.29953 19.2841 7.16265 19.5259L8.03285 20.0186L7.16265 19.5259C7.02576 19.7676 6.96069 20.0313 6.90929 20.2396C6.90462 20.2585 6.90007 20.277 6.89558 20.2949L5.89872 24.2823C5.89592 24.2936 5.893 24.3052 5.88998 24.3172C5.85316 24.4637 5.80215 24.6666 5.78458 24.8462C5.76436 25.0529 5.75768 25.5048 6.12645 25.8736Z" stroke="#8E8E8E" stroke-width="2"/>
<path d="M16.6667 10L20.6667 7.33334L24.6667 11.3333L22.0001 15.3333L16.6667 10Z" fill="#8E8E8E"/>
</svg>
