<svg width="18" height="18" viewBox="0 0 18 18" fill="none" xmlns="http://www.w3.org/2000/svg">
<path d="M2.93672 10.2678L8.54569 15.3392C8.65743 15.4403 8.7133 15.4908 8.77164 15.5207C8.91498 15.5943 9.08501 15.5943 9.22836 15.5207C9.2867 15.4908 9.34256 15.4403 9.4543 15.3392L9.4543 15.3392L15.0633 10.2678C16.7114 8.7776 16.9098 6.26 15.5153 4.5301L15.347 4.32126C13.7201 2.30308 10.5495 2.65022 9.39788 4.97262C9.23469 5.3017 8.76531 5.3017 8.60212 4.97262C7.45052 2.65022 4.27988 2.30307 2.65304 4.32126L2.4847 4.5301C1.09024 6.25999 1.28858 8.77759 2.93672 10.2678Z" stroke="black" stroke-width="2"/>
</svg>
