<svg width="18" height="18" viewBox="0 0 18 18" fill="none" xmlns="http://www.w3.org/2000/svg">
<g clip-path="url(#clip0_67_762)">
<path d="M17.1282 7.37655H16.4605V7.34215H8.99998V10.6579H13.6848C13.0013 12.5881 11.1648 13.9737 8.99998 13.9737C6.25327 13.9737 4.0263 11.7468 4.0263 9.00005C4.0263 6.25333 6.25327 4.02636 8.99998 4.02636C10.2679 4.02636 11.4213 4.50466 12.2996 5.28595L14.6443 2.94127C13.1638 1.56149 11.1834 0.710571 8.99998 0.710571C4.42212 0.710571 0.71051 4.42218 0.71051 9.00005C0.71051 13.5779 4.42212 17.2895 8.99998 17.2895C13.5778 17.2895 17.2895 13.5779 17.2895 9.00005C17.2895 8.44424 17.2323 7.90169 17.1282 7.37655Z" fill="#FFC107"/>
<path d="M1.66626 5.14171L4.38977 7.13906C5.1267 5.31455 6.91142 4.02636 8.99996 4.02636C10.2678 4.02636 11.4213 4.50466 12.2996 5.28595L14.6443 2.94127C13.1638 1.56149 11.1834 0.710571 8.99996 0.710571C5.81597 0.710571 3.05475 2.50814 1.66626 5.14171Z" fill="#FF3D00"/>
<path d="M9 17.2895C11.1412 17.2895 13.0867 16.4701 14.5577 15.1375L11.9921 12.9665C11.1598 13.5969 10.1253 13.9737 9 13.9737C6.84391 13.9737 5.01318 12.5989 4.3235 10.6803L1.6203 12.763C2.99221 15.4476 5.7783 17.2895 9 17.2895Z" fill="#4CAF50"/>
<path d="M17.1282 7.37656H16.4605V7.34216H9V10.658H13.6848C13.3565 11.5851 12.7601 12.3847 11.9908 12.967C11.9913 12.9666 11.9917 12.9666 11.9921 12.9662L14.5577 15.1372C14.3761 15.3021 17.2895 13.1448 17.2895 9.00006C17.2895 8.44425 17.2323 7.9017 17.1282 7.37656Z" fill="#1976D2"/>
</g>
<defs>
<clipPath id="clip0_67_762">
<rect width="18" height="18" fill="white"/>
</clipPath>
</defs>
</svg>
