<svg width="16" height="17" viewBox="0 0 16 17" fill="none" xmlns="http://www.w3.org/2000/svg">
<path fill-rule="evenodd" clip-rule="evenodd" d="M0.794066 6.26579C0.5 6.82743 0.5 7.46637 0.5 8.74426V12.7352C0.5 14.5099 0.5 15.3973 1.12763 15.9486C1.70522 16.456 2.60676 16.4964 4.32143 16.4996V11.7941C4.32143 10.6042 5.37455 9.85292 6.39286 9.85292H9.60714C10.6254 9.85292 11.6786 10.6042 11.6786 11.7941V16.4996C13.3932 16.4964 14.2948 16.456 14.8724 15.9486C15.5 15.3973 15.5 14.5099 15.5 12.7352V8.74426C15.5 7.46637 15.5 6.82743 15.2059 6.26579C14.9119 5.70415 14.3596 5.28834 13.2551 4.4567L12.1837 3.64997C10.1872 2.14679 9.18904 1.3952 8 1.3952C6.81096 1.3952 5.81275 2.14679 3.81634 3.64997L2.74491 4.4567C1.64039 5.28834 1.08813 5.70415 0.794066 6.26579ZM9.67857 16.4999V11.8653C9.6623 11.8589 9.63864 11.8529 9.60714 11.8529H6.39286C6.36136 11.8529 6.3377 11.8589 6.32143 11.8653V16.4999H9.67857Z" fill="#393939"/>
</svg>
