<svg width="25" height="25" viewBox="0 0 25 25" fill="none" xmlns="http://www.w3.org/2000/svg">
<g clip-path="url(#clip0_152_1004)">
<path d="M12.1842 1.12393C7.41157 1.12393 6.01577 1.12886 5.74445 1.15136C4.76502 1.23278 4.15556 1.38699 3.4916 1.71756C2.9799 1.97165 2.57635 2.26618 2.17808 2.67905C1.45274 3.432 1.01314 4.35832 0.854009 5.45942C0.77664 5.99397 0.754133 6.10299 0.749561 8.83342C0.747802 9.74356 0.749561 10.9414 0.749561 12.548C0.749561 17.3168 0.754836 18.7112 0.777695 18.982C0.856823 19.935 1.00629 20.5346 1.3228 21.1905C1.92768 22.446 3.08295 23.3885 4.44394 23.7402C4.91519 23.8615 5.43567 23.9283 6.10386 23.96C6.38696 23.9723 9.27248 23.9811 12.1598 23.9811C15.047 23.9811 17.9343 23.9776 18.2104 23.9635C18.9841 23.9271 19.4333 23.8668 19.9301 23.7384C20.6049 23.5654 21.2338 23.2471 21.7729 22.8058C22.312 22.3645 22.7483 21.8108 23.0512 21.1835C23.3616 20.5434 23.519 19.921 23.5902 19.0177C23.6056 18.8207 23.6122 15.6808 23.6122 12.545C23.6122 9.40877 23.6051 6.27461 23.5896 6.07767C23.5176 5.15979 23.3602 4.5426 23.0398 3.89023C22.7769 3.35621 22.485 2.95741 22.0613 2.54964C21.3051 1.82729 20.3802 1.38769 19.2779 1.22873C18.7439 1.15154 18.6375 1.12868 15.905 1.12393H12.1842Z" fill="#8E8E8E"/>
<path d="M12.1842 1.12393C7.41157 1.12393 6.01577 1.12886 5.74445 1.15136C4.76502 1.23278 4.15556 1.38699 3.4916 1.71756C2.9799 1.97165 2.57635 2.26618 2.17808 2.67905C1.45274 3.432 1.01314 4.35832 0.854009 5.45942C0.77664 5.99397 0.754133 6.10299 0.749561 8.83342C0.747802 9.74356 0.749561 10.9414 0.749561 12.548C0.749561 17.3168 0.754836 18.7112 0.777695 18.982C0.856823 19.935 1.00629 20.5346 1.3228 21.1905C1.92768 22.446 3.08295 23.3885 4.44394 23.7402C4.91519 23.8615 5.43567 23.9283 6.10386 23.96C6.38696 23.9723 9.27248 23.9811 12.1598 23.9811C15.047 23.9811 17.9343 23.9776 18.2104 23.9635C18.9841 23.9271 19.4333 23.8668 19.9301 23.7384C20.6049 23.5654 21.2338 23.2471 21.7729 22.8058C22.312 22.3645 22.7483 21.8108 23.0512 21.1835C23.3616 20.5434 23.519 19.921 23.5902 19.0177C23.6056 18.8207 23.6122 15.6808 23.6122 12.545C23.6122 9.40877 23.6051 6.27461 23.5896 6.07767C23.5176 5.15979 23.3602 4.5426 23.0398 3.89023C22.7769 3.35621 22.485 2.95741 22.0613 2.54964C21.3051 1.82729 20.3802 1.38769 19.2779 1.22873C18.7439 1.15154 18.6375 1.12868 15.905 1.12393H12.1842Z" fill="#8E8E8E"/>
<path d="M12.1788 4.11319C9.8866 4.11319 9.59893 4.12321 8.69863 4.16418C7.8001 4.20533 7.18677 4.34758 6.65011 4.5563C6.09498 4.77188 5.62409 5.06026 5.15495 5.52957C4.68546 5.99871 4.39708 6.46961 4.1808 7.02456C3.97155 7.56139 3.82912 8.1749 3.78868 9.07308C3.74859 9.97338 3.73804 10.2612 3.73804 12.5535C3.73804 14.8457 3.74824 15.1325 3.78903 16.0328C3.83035 16.9313 3.97261 17.5447 4.18115 18.0813C4.39691 18.6364 4.68528 19.1073 5.1546 19.5765C5.62356 20.046 6.09446 20.335 6.64923 20.5506C7.18624 20.7593 7.79974 20.9016 8.69811 20.9427C9.5984 20.9837 9.8859 20.9937 12.178 20.9937C14.4704 20.9937 14.7572 20.9837 15.6575 20.9427C16.556 20.9016 17.17 20.7593 17.707 20.5506C18.262 20.335 18.7322 20.046 19.2011 19.5765C19.6706 19.1073 19.959 18.6364 20.1753 18.0815C20.3828 17.5447 20.5252 16.9312 20.5674 16.033C20.6079 15.1327 20.6184 14.8457 20.6184 12.5535C20.6184 10.2612 20.6079 9.97355 20.5674 9.07326C20.5252 8.17472 20.3828 7.56139 20.1753 7.02473C19.959 6.46961 19.6706 5.99871 19.2011 5.52957C18.7317 5.06008 18.2622 4.77171 17.7065 4.5563C17.1684 4.34758 16.5548 4.20533 15.6562 4.16418C14.7559 4.12321 14.4693 4.11319 12.1764 4.11319H12.1788ZM11.4217 5.6342C11.6464 5.63385 11.8971 5.6342 12.1788 5.6342C14.4324 5.6342 14.6995 5.64229 15.5894 5.68273C16.4123 5.72036 16.859 5.85786 17.1565 5.97339C17.5504 6.12637 17.8312 6.30924 18.1264 6.60465C18.4218 6.90006 18.6047 7.18141 18.758 7.57528C18.8736 7.87245 19.0112 8.31908 19.0487 9.14201C19.0891 10.0318 19.0979 10.299 19.0979 12.5515C19.0979 14.804 19.0891 15.0713 19.0487 15.9611C19.0111 16.784 18.8736 17.2306 18.758 17.5278C18.6051 17.9217 18.4218 18.2021 18.1264 18.4974C17.831 18.7928 17.5505 18.9756 17.1565 19.1286C16.8593 19.2447 16.4123 19.3818 15.5894 19.4195C14.6997 19.4599 14.4324 19.4687 12.1788 19.4687C9.92511 19.4687 9.65801 19.4599 8.76827 19.4195C7.94534 19.3815 7.49871 19.244 7.20101 19.1284C6.80713 18.9755 6.52579 18.7926 6.23038 18.4972C5.93497 18.2018 5.7521 17.9211 5.59877 17.5271C5.48324 17.2299 5.34556 16.7833 5.3081 15.9603C5.26766 15.0706 5.25957 14.8033 5.25957 12.5494C5.25957 10.2955 5.26766 10.0296 5.3081 9.1399C5.34573 8.31697 5.48324 7.87034 5.59877 7.57282C5.75175 7.17894 5.93497 6.8976 6.23038 6.60219C6.52579 6.30678 6.80713 6.12391 7.20101 5.97058C7.49853 5.85452 7.94534 5.71737 8.76827 5.67956C9.54688 5.6444 9.84862 5.63385 11.4217 5.63209V5.6342ZM16.6842 7.03563C16.4839 7.03563 16.288 7.09505 16.1215 7.20635C15.9549 7.31766 15.8251 7.47586 15.7484 7.66095C15.6718 7.84605 15.6517 8.04971 15.6908 8.24619C15.73 8.44267 15.8264 8.62314 15.9681 8.76477C16.1098 8.90641 16.2903 9.00284 16.4868 9.04188C16.6833 9.08092 16.887 9.06082 17.072 8.9841C17.2571 8.90739 17.4152 8.77752 17.5265 8.61091C17.6377 8.44431 17.6971 8.24845 17.697 8.04812C17.697 7.48895 17.2434 7.03528 16.6842 7.03528V7.03563ZM12.1788 8.21903C9.78514 8.21903 7.84441 10.1598 7.84441 12.5535C7.84441 14.9472 9.78514 16.887 12.1788 16.887C14.5725 16.887 16.5127 14.9472 16.5127 12.5535C16.5127 10.1598 14.5725 8.21903 12.1788 8.21903ZM12.1788 9.74004C13.7326 9.74004 14.9923 10.9996 14.9923 12.5535C14.9923 14.1072 13.7326 15.3669 12.1788 15.3669C10.6249 15.3669 9.36541 14.1072 9.36541 12.5535C9.36541 10.9996 10.6249 9.74004 12.1788 9.74004Z" fill="white"/>
</g>
<defs>
<clipPath id="clip0_152_1004">
<rect width="24" height="24" fill="white" transform="translate(0.18042 0.55249)"/>
</clipPath>
</defs>
</svg>
