<svg width="16" height="17" viewBox="0 0 16 17" fill="none" xmlns="http://www.w3.org/2000/svg">
<path d="M7.99997 1.5625L1.88232 4.39583L7.99997 7.22917L14.1176 4.39583L7.99997 1.5625Z" stroke="#393939" stroke-width="2" stroke-linejoin="round"/>
<path fill-rule="evenodd" clip-rule="evenodd" d="M3.19741 6.98938L1.43183 7.74868C1.06476 7.90654 0.826904 8.26776 0.826904 8.66733C0.826904 9.0669 1.06476 9.42812 1.43183 9.58598L7.63252 12.2526C7.88474 12.3611 8.17045 12.3611 8.42267 12.2526L14.6234 9.58598C14.9904 9.42812 15.2283 9.0669 15.2283 8.66733C15.2283 8.26776 14.9904 7.90654 14.6234 7.74868L12.8578 6.98938L10.3266 8.07793L11.6971 8.66733L8.0276 10.2454L4.35808 8.66733L5.72858 8.07793L3.19741 6.98938Z" fill="#393939"/>
<path fill-rule="evenodd" clip-rule="evenodd" d="M3.19765 11.21L1.43207 11.9693C1.06501 12.1272 0.827148 12.4884 0.827148 12.888C0.827148 13.2875 1.06501 13.6488 1.43207 13.8066L7.63277 16.4733C7.88498 16.5818 8.1707 16.5818 8.42291 16.4733L14.6236 13.8066C14.9907 13.6488 15.2285 13.2875 15.2285 12.888C15.2285 12.4884 14.9907 12.1272 14.6236 11.9693L12.858 11.21L10.3269 12.2986L11.6974 12.888L8.02784 14.4661L4.35832 12.888L5.72882 12.2986L3.19765 11.21Z" fill="#393939"/>
</svg>
