<svg width="18" height="18" viewBox="0 0 18 18" fill="none" xmlns="http://www.w3.org/2000/svg">
<path fill-rule="evenodd" clip-rule="evenodd" d="M9 18C13.9706 18 18 13.9706 18 9C18 4.02944 13.9706 0 9 0C4.02944 0 0 4.02944 0 9C0 13.9706 4.02944 18 9 18ZM11.3383 7.64986C10.831 6.77118 8.21702 5.32272 6.9672 4.666C6.65108 4.4999 6.27742 4.71563 6.26321 5.07245C6.20704 6.48318 6.15445 9.47118 6.66176 10.3499C7.16907 11.2285 9.78304 12.677 11.0329 13.3337C11.349 13.4998 11.7226 13.2841 11.7368 12.9273C11.793 11.5165 11.8456 8.52855 11.3383 7.64986Z" fill="#FA422E"/>
</svg>
