<svg width="16" height="17" viewBox="0 0 16 17" fill="none" xmlns="http://www.w3.org/2000/svg">
<path fill-rule="evenodd" clip-rule="evenodd" d="M8.43186 13.1067C9.72042 12.4367 13.7251 10.0378 13.7251 6.1C13.7251 3.00721 11.1787 0.5 8.0376 0.5C4.89648 0.5 2.3501 3.00721 2.3501 6.1C2.3501 10.0378 6.35477 12.4367 7.64333 13.1067C7.89251 13.2362 8.18268 13.2362 8.43186 13.1067ZM8.0376 8.50001C9.38379 8.50001 10.4751 7.4255 10.4751 6.10001C10.4751 4.77453 9.38379 3.70001 8.0376 3.70001C6.6914 3.70001 5.6001 4.77453 5.6001 6.10001C5.6001 7.4255 6.6914 8.50001 8.0376 8.50001Z" fill="#393939"/>
<path d="M12.9631 12.1C13.4623 12.4649 13.7251 12.8787 13.7251 13.3C13.7251 13.7213 13.4623 14.1352 12.9631 14.5C12.4639 14.8649 11.746 15.1678 10.8813 15.3785C10.0167 15.5891 9.03596 15.7 8.0376 15.7C7.03923 15.7 6.05846 15.5891 5.19385 15.3785C4.32924 15.1678 3.61126 14.8649 3.11208 14.5C2.6129 14.1352 2.3501 13.7213 2.3501 13.3C2.3501 12.8787 2.6129 12.4649 3.11208 12.1" stroke="#393939" stroke-width="2" stroke-linecap="round"/>
</svg>
