<svg width="14" height="15" viewBox="0 0 14 15" fill="none" xmlns="http://www.w3.org/2000/svg">
<g clip-path="url(#clip0_218_982)">
<path d="M7 14.5525C10.866 14.5525 14 11.4185 14 7.55246C14 3.68647 10.866 0.55246 7 0.55246C3.13401 0.55246 0 3.68647 0 7.55246C0 11.4185 3.13401 14.5525 7 14.5525Z" fill="#8247E5"/>
<path d="M9.31692 6.05478C9.14903 5.95711 8.93076 5.95711 8.74608 6.05478L7.43648 6.80362L6.54663 7.29199L5.23704 8.04083C5.06914 8.1385 4.85088 8.1385 4.66619 8.04083L3.62523 7.45478C3.45734 7.35711 3.33981 7.17804 3.33981 6.98268V5.82687C3.33981 5.63153 3.44055 5.45245 3.62523 5.35478L4.6494 4.78501C4.81729 4.68733 5.03556 4.68733 5.22026 4.78501L6.24442 5.35478C6.41232 5.45245 6.52984 5.63153 6.52984 5.82687V6.57571L7.41969 6.07105V5.32222C7.41969 5.12687 7.31896 4.9478 7.13428 4.85013L5.23704 3.77571C5.06914 3.67804 4.85088 3.67804 4.66619 3.77571L2.73538 4.85013C2.55069 4.9478 2.44995 5.12687 2.44995 5.32222V7.48733C2.44995 7.68268 2.55069 7.86175 2.73538 7.95942L4.66619 9.03384C4.83409 9.13153 5.05235 9.13153 5.23704 9.03384L6.54663 8.30129L7.43648 7.79663L8.74608 7.06408C8.91397 6.96641 9.13224 6.96641 9.31692 7.06408L10.3411 7.63384C10.509 7.73153 10.6265 7.91059 10.6265 8.10595V9.26175C10.6265 9.45711 10.5258 9.63617 10.3411 9.73384L9.31692 10.3199C9.14903 10.4176 8.93076 10.4176 8.74608 10.3199L7.72191 9.75013C7.55402 9.65245 7.43648 9.47338 7.43648 9.27804V8.5292L6.54663 9.03384V9.78268C6.54663 9.97804 6.64737 10.1571 6.83206 10.2548L8.76287 11.3292C8.93076 11.4269 9.14903 11.4269 9.33371 11.3292L11.2645 10.2548C11.4324 10.1571 11.55 9.97804 11.55 9.78268V7.61757C11.55 7.42222 11.4492 7.24315 11.2645 7.14547L9.31692 6.05478Z" fill="white"/>
</g>
<defs>
<clipPath id="clip0_218_982">
<rect width="14" height="14" fill="white" transform="translate(0 0.55246)"/>
</clipPath>
</defs>
</svg>
