<svg width="31" height="25" viewBox="0 0 31 25" fill="none" xmlns="http://www.w3.org/2000/svg">
<g clip-path="url(#clip0_152_1047)">
<path d="M27.0716 6.58659C27.0894 6.84189 27.0894 7.09718 27.0894 7.35483C27.0894 15.2054 21.0808 24.2595 10.0938 24.2595V24.2548C6.84818 24.2595 3.67 23.3348 0.937744 21.5913C1.40968 21.6478 1.88398 21.676 2.35946 21.6772C5.04914 21.6795 7.66194 20.7819 9.77796 19.1289C7.22194 19.0807 4.98054 17.4231 4.19753 15.0031C5.09291 15.1748 6.01549 15.1395 6.8943 14.9007C4.10764 14.3407 2.1028 11.9054 2.1028 9.07718V9.00189C2.93312 9.46189 3.8628 9.71718 4.81377 9.74542C2.18914 8.00071 1.38011 4.52777 2.96506 1.81248C5.99774 5.52424 10.4723 7.78071 15.2756 8.01953C14.7942 5.95601 15.4518 3.79365 17.0037 2.34306C19.4095 0.0936523 23.1932 0.208946 25.4547 2.60071C26.7925 2.33836 28.0746 1.85012 29.248 1.15836C28.802 2.53365 27.8688 3.70189 26.6222 4.44424C27.8061 4.30542 28.9629 3.99012 30.0523 3.50895C29.2503 4.70424 28.2402 5.74542 27.0716 6.58659Z" fill="#8E8E8E"/>
</g>
<defs>
<clipPath id="clip0_152_1047">
<rect width="29.3333" height="24" fill="white" transform="translate(0.81958 0.55249)"/>
</clipPath>
</defs>
</svg>
